HIERARCHY
ROOT Root
{
  OFFSET 0.0 0.0 0.0
  CHANNELS 6 Xposition Yposition Zposition Zrotation Yrotation Xrotation
  JOINT Hips
  {
    OFFSET 0.0 100.0 0.0
    CHANNELS 6 Xposition Yposition Zposition Zrotation Yrotation Xrotation
    JOINT Spine1
    {
      OFFSET 5.003913 -0.037094 -0.013727
      CHANNELS 3 Zrotation Yrotation Xrotation
      JOINT Spine2
      {
        OFFSET 7.125363 -1e-06 0.0
        CHANNELS 3 Zrotation Yrotation Xrotation
        JOINT Chest
        {
          OFFSET 7.594027 1e-06 0.0
          CHANNELS 3 Zrotation Yrotation Xrotation
          JOINT Neck1
          {
            OFFSET 26.313086 -0.460272 -0.181672
            CHANNELS 3 Zrotation Yrotation Xrotation
            JOINT Neck2
            {
              OFFSET 8.045911 0.0 0.0
              CHANNELS 3 Zrotation Yrotation Xrotation
              JOINT Head
              {
                OFFSET 6.432774 0.0 0.0
                CHANNELS 3 Zrotation Yrotation Xrotation
                JOINT HeadEnd
                {
                  OFFSET 16.169773 0.06451 0.00362
                  CHANNELS 3 Zrotation Yrotation Xrotation
                }
                JOINT Jaw
                {
                  OFFSET 0.108741 3.12938 0.002639
                  CHANNELS 3 Zrotation Yrotation Xrotation
                }
                JOINT LeftEye
                {
                  OFFSET 4.45173 8.166359 3.206392
                  CHANNELS 3 Zrotation Yrotation Xrotation
                }
                JOINT RightEye
                {
                  OFFSET 4.436895 8.135758 -3.222429
                  CHANNELS 3 Zrotation Yrotation Xrotation
                }
              }
            }
          }
          JOINT LeftShoulder
          {
            OFFSET 23.218927 5.195579 1.621656
            CHANNELS 3 Zrotation Yrotation Xrotation
            JOINT LeftArm
            {
              OFFSET 15.902118 2e-06 -2e-06
              CHANNELS 3 Zrotation Yrotation Xrotation
              JOINT LeftForeArm
              {
                OFFSET 28.739307 0.0 -1e-06
                CHANNELS 3 Zrotation Yrotation Xrotation
                JOINT LeftHand
                {
                  OFFSET 27.093981 -4e-06 0.0
                  CHANNELS 3 Zrotation Yrotation Xrotation
                  JOINT LeftHandThumb1
                  {
                    OFFSET 2.276781 3.380274 0.83384
                    CHANNELS 3 Zrotation Yrotation Xrotation
                    JOINT LeftHandThumb2
                    {
                      OFFSET 4.705309 -1e-06 -1e-06
                      CHANNELS 3 Zrotation Yrotation Xrotation
                      JOINT LeftHandThumb3
                      {
                        OFFSET 2.798515 0.0 3e-06
                        CHANNELS 3 Zrotation Yrotation Xrotation
                        JOINT LeftHandThumbEnd
                        {
                          OFFSET 3.180793 4e-06 -4e-06
                          CHANNELS 3 Zrotation Yrotation Xrotation
                        }
                      }
                    }
                  }
                  JOINT LeftHandIndex1
                  {
                    OFFSET 3.247786 2.352677 0.137192
                    CHANNELS 3 Zrotation Yrotation Xrotation
                    JOINT LeftHandIndex2
                    {
                      OFFSET 6.367095 1e-06 0.0
                      CHANNELS 3 Zrotation Yrotation Xrotation
                      JOINT LeftHandIndex3
                      {
                        OFFSET 3.662364 0.0 0.0
                        CHANNELS 3 Zrotation Yrotation Xrotation
                        JOINT LeftHandIndex4
                        {
                          OFFSET 2.329242 4e-06 -4e-06
                          CHANNELS 3 Zrotation Yrotation Xrotation
                          JOINT LeftHandIndexEnd
                          {
                            OFFSET 2.767823 1e-06 0.0
                            CHANNELS 3 Zrotation Yrotation Xrotation
                          }
                        }
                      }
                    }
                  }
                  JOINT LeftHandMiddle1
                  {
                    OFFSET 3.163612 0.945023 -0.406112
                    CHANNELS 3 Zrotation Yrotation Xrotation
                    JOINT LeftHandMiddle2
                    {
                      OFFSET 6.276789 3e-06 0.0
                      CHANNELS 3 Zrotation Yrotation Xrotation
                      JOINT LeftHandMiddle3
                      {
                        OFFSET 4.35652 -1e-06 4e-06
                        CHANNELS 3 Zrotation Yrotation Xrotation
                        JOINT LeftHandMiddle4
                        {
                          OFFSET 2.996877 0.0 8e-06
                          CHANNELS 3 Zrotation Yrotation Xrotation
                          JOINT LeftHandMiddleEnd
                          {
                            OFFSET 2.323256 3e-06 -4e-06
                            CHANNELS 3 Zrotation Yrotation Xrotation
                          }
                        }
                      }
                    }
                  }
                  JOINT LeftHandRing1
                  {
                    OFFSET 2.882606 -0.309162 0.107445
                    CHANNELS 3 Zrotation Yrotation Xrotation
                    JOINT LeftHandRing2
                    {
                      OFFSET 6.033198 0.0 4e-06
                      CHANNELS 3 Zrotation Yrotation Xrotation
                      JOINT LeftHandRing3
                      {
                        OFFSET 4.350578 3e-06 0.0
                        CHANNELS 3 Zrotation Yrotation Xrotation
                        JOINT LeftHandRing4
                        {
                          OFFSET 2.651321 2e-06 -7e-06
                          CHANNELS 3 Zrotation Yrotation Xrotation
                          JOINT LeftHandRingEnd
                          {
                            OFFSET 1.937663 1e-06 -4e-06
                            CHANNELS 3 Zrotation Yrotation Xrotation
                          }
                        }
                      }
                    }
                  }
                  JOINT LeftHandPinky1
                  {
                    OFFSET 2.865315 -1.525436 0.575687
                    CHANNELS 3 Zrotation Yrotation Xrotation
                    JOINT LeftHandPinky2
                    {
                      OFFSET 5.54936 1e-06 -8e-06
                      CHANNELS 3 Zrotation Yrotation Xrotation
                      JOINT LeftHandPinky3
                      {
                        OFFSET 3.070974 0.0 -4e-06
                        CHANNELS 3 Zrotation Yrotation Xrotation
                        JOINT LeftHandPinky4
                        {
                          OFFSET 1.549672 1e-06 0.0
                          CHANNELS 3 Zrotation Yrotation Xrotation
                          JOINT LeftHandPinkyEnd
                          {
                            OFFSET 1.952123 0.0 0.0
                            CHANNELS 3 Zrotation Yrotation Xrotation
                          }
                        }
                      }
                    }
                  }
                }
              }
            }
          }
          JOINT RightShoulder
          {
            OFFSET 23.161716 5.296122 -1.380114
            CHANNELS 3 Zrotation Yrotation Xrotation
            JOINT RightArm
            {
              OFFSET -16.027195 -2e-06 1.1e-05
              CHANNELS 3 Zrotation Yrotation Xrotation
              JOINT RightForeArm
              {
                OFFSET -28.736639 4e-06 2e-06
                CHANNELS 3 Zrotation Yrotation Xrotation
                JOINT RightHand
                {
                  OFFSET -27.133619 6e-06 0.0
                  CHANNELS 3 Zrotation Yrotation Xrotation
                  JOINT RightHandThumb1
                  {
                    OFFSET -2.274328 -3.351035 -0.83067
                    CHANNELS 3 Zrotation Yrotation Xrotation
                    JOINT RightHandThumb2
                    {
                      OFFSET -4.703594 -3e-06 2e-06
                      CHANNELS 3 Zrotation Yrotation Xrotation
                      JOINT RightHandThumb3
                      {
                        OFFSET -2.794935 -4e-06 -3e-06
                        CHANNELS 3 Zrotation Yrotation Xrotation
                        JOINT RightHandThumbEnd
                        {
                          OFFSET -3.183852 4e-06 1e-06
                          CHANNELS 3 Zrotation Yrotation Xrotation
                        }
                      }
                    }
                  }
                  JOINT RightHandIndex1
                  {
                    OFFSET -3.253496 -2.33755 -0.127667
                    CHANNELS 3 Zrotation Yrotation Xrotation
                    JOINT RightHandIndex2
                    {
                      OFFSET -6.344434 0.0 0.0
                      CHANNELS 3 Zrotation Yrotation Xrotation
                      JOINT RightHandIndex3
                      {
                        OFFSET -3.654871 0.0 -8e-06
                        CHANNELS 3 Zrotation Yrotation Xrotation
                        JOINT RightHandIndex4
                        {
                          OFFSET -2.327586 -1e-06 0.0
                          CHANNELS 3 Zrotation Yrotation Xrotation
                          JOINT RightHandIndexEnd
                          {
                            OFFSET -2.770001 3e-06 8e-06
                            CHANNELS 3 Zrotation Yrotation Xrotation
                          }
                        }
                      }
                    }
                  }
                  JOINT RightHandMiddle1
                  {
                    OFFSET -3.168223 -0.944764 0.411762
                    CHANNELS 3 Zrotation Yrotation Xrotation
                    JOINT RightHandMiddle2
                    {
                      OFFSET -6.266691 -1e-06 -4e-06
                      CHANNELS 3 Zrotation Yrotation Xrotation
                      JOINT RightHandMiddle3
                      {
                        OFFSET -4.348901 0.0 0.0
                        CHANNELS 3 Zrotation Yrotation Xrotation
                        JOINT RightHandMiddle4
                        {
                          OFFSET -3.00024 2e-06 -4e-06
                          CHANNELS 3 Zrotation Yrotation Xrotation
                          JOINT RightHandMiddleEnd
                          {
                            OFFSET -2.321477 -4e-06 -4e-06
                            CHANNELS 3 Zrotation Yrotation Xrotation
                          }
                        }
                      }
                    }
                  }
                  JOINT RightHandRing1
                  {
                    OFFSET -2.885654 0.293261 -0.119232
                    CHANNELS 3 Zrotation Yrotation Xrotation
                    JOINT RightHandRing2
                    {
                      OFFSET -6.032835 -1e-06 -4e-06
                      CHANNELS 3 Zrotation Yrotation Xrotation
                      JOINT RightHandRing3
                      {
                        OFFSET -4.33881 0.0 -4e-06
                        CHANNELS 3 Zrotation Yrotation Xrotation
                        JOINT RightHandRing4
                        {
                          OFFSET -2.654903 -4e-06 -4e-06
                          CHANNELS 3 Zrotation Yrotation Xrotation
                          JOINT RightHandRingEnd
                          {
                            OFFSET -1.935122 0.0 4e-06
                            CHANNELS 3 Zrotation Yrotation Xrotation
                          }
                        }
                      }
                    }
                  }
                  JOINT RightHandPinky1
                  {
                    OFFSET -2.866241 1.503904 -0.60527
                    CHANNELS 3 Zrotation Yrotation Xrotation
                    JOINT RightHandPinky2
                    {
                      OFFSET -5.553177 -2e-06 0.0
                      CHANNELS 3 Zrotation Yrotation Xrotation
                      JOINT RightHandPinky3
                      {
                        OFFSET -3.062664 -1e-06 -4e-06
                        CHANNELS 3 Zrotation Yrotation Xrotation
                        JOINT RightHandPinky4
                        {
                          OFFSET -1.546529 2e-06 4e-06
                          CHANNELS 3 Zrotation Yrotation Xrotation
                          JOINT RightHandPinkyEnd
                          {
                            OFFSET -1.952341 0.0 -4e-06
                            CHANNELS 3 Zrotation Yrotation Xrotation
                          }
                        }
                      }
                    }
                  }
                }
              }
            }
          }
        }
      }
    }
    JOINT LeftLeg
    {
      OFFSET -8.443107 2.567604 10.043214
      CHANNELS 3 Zrotation Yrotation Xrotation
      JOINT LeftShin
      {
        OFFSET 43.229198 1e-06 -1e-06
        CHANNELS 3 Zrotation Yrotation Xrotation
        JOINT LeftFoot
        {
          OFFSET 42.298611 1e-06 1e-06
          CHANNELS 3 Zrotation Yrotation Xrotation
          JOINT LeftToeBase
          {
            OFFSET 14.165858 1e-06 0.0
            CHANNELS 3 Zrotation Yrotation Xrotation
            JOINT LeftToeEnd
            {
              OFFSET 6.7141 -0.234461 0.0
              CHANNELS 3 Zrotation Yrotation Xrotation
            }
          }
        }
      }
    }
    JOINT RightLeg
    {
      OFFSET -8.303923 2.592729 -10.047278
      CHANNELS 3 Zrotation Yrotation Xrotation
      JOINT RightShin
      {
        OFFSET -43.369682 0.0 1e-06
        CHANNELS 3 Zrotation Yrotation Xrotation
        JOINT RightFoot
        {
          OFFSET -42.260784 4e-06 2e-06
          CHANNELS 3 Zrotation Yrotation Xrotation
          JOINT RightToeBase
          {
            OFFSET -14.222245 -2e-06 -1e-06
            CHANNELS 3 Zrotation Yrotation Xrotation
            JOINT RightToeEnd
            {
              OFFSET -6.660062 0.232574 -2e-06
              CHANNELS 3 Zrotation Yrotation Xrotation
            }
          }
        }
      }
    }
  }
}
MOTION
Frames: 4
Frame Time: 0.03333333333333333
0.0 0.0 0.0 0.0 -0.0 0.0 -0.671395 99.076263 -0.619823 91.016754 1.792766 90.421745 -3.517638 -0.498768 -0.361913 -12.483256 -0.610777 -0.967409 19.508398 0.279912 -3.237316 23.46397 -3.585211 2.386891 -2.612478 -0.209377 0.103203 -34.679485 0.141275 -0.073401 6e-06 0.0 -0.0 0.04745 0.011186 0.078486 0.124838 0.025435 0.082151 0.12797 -0.006526 0.0884 -124.597816 -76.43644 144.234314 39.340923 -60.632641 1.631933 31.301298 0.075227 -0.004397 0.781864 4.170613 16.784201 17.636557 -26.32268 52.411224 -19.466537 -14.39555 29.410368 5.7e-05 -8.774831 -1e-06 15.851599 -17.884186 6.124549 -0.609788 -1.795655 -3.889326 -4.807157 -11.04685 -2.937842 -0.000133 -20.976053 5e-06 -5.020125 -25.033722 -4.031967 4e-06 -2e-06 2e-06 -10.634555 -5.687024 -3.565581 10.573168 -17.922916 -3.113876 -7.8e-05 -13.821239 -1.6e-05 -0.501927 -31.181684 -4.027134 -11.227792 -59.448341 7.551996 -13.982739 -7.150268 -2.875029 13.772682 -8.401425 -3.218223 0.347512 -34.211636 0.771656 -0.963115 -17.73345 2.620968 1e-06 -1e-06 -1e-06 -17.346519 -20.095325 -4.201743 21.757578 -1.638253 3.866458 -3.8e-05 -6.338838 -2e-06 -1.697735 -22.591887 -6.194088 -3e-06 -4e-06 1e-06 68.462669 -78.974503 129.141617 54.764763 -59.548027 12.769168 29.211933 0.104872 0.004115 -1.333041 8.259171 4.732255 22.182085 -20.375858 49.933441 -16.70178 -16.743469 28.476591 5.8e-05 -12.690616 -5e-06 16.223457 -17.617422 2.48396 -0.105931 -1.513868 -4.275887 -5.03907 -5.612931 -2.95357 -4.8e-05 -11.020625 -7e-06 -6.11139 -15.895585 -3.840522 1e-06 -1e-06 0.0 -10.283384 -5.680354 -4.341846 11.028244 -11.302431 -2.372634 -1.384333 -14.238734 -6.320185 -0.625529 -26.924549 -3.827739 -4.280261 -49.549835 -3.879707 -13.708542 -7.363561 -3.720944 18.141081 -14.052751 -3.242667 -6.7e-05 -18.787437 -4.5e-05 -0.429744 -8.456137 2.555491 2e-06 -3e-06 2e-06 -15.92361 -20.094648 -5.473575 30.419184 -7.190721 1.735974 -3e-05 -8.162987 -2.8e-05 -1.861941 -22.861792 -6.168118 -2e-06 -3e-06 0.0 -176.245804 -2.972989 -7.853248 9.749011 -0.030419 0.447275 -81.390465 -0.742035 -7.615744 -5.4419 1.504161 2.09187 -0.999999 -0.0 -1e-06 6.583159 -6.444473 -13.791197 8.378041 0.083324 0.125457 -81.966087 1.058829 -9.398849 -5.705698 0.557763 1.629029 -1.000003 1e-06 -1e-06 
0.0 0.0 0.0 0.0 -0.0 0.0 -0.691847 99.122017 -0.955724 91.21257 1.757311 90.325294 -3.344453 -0.491765 -0.376867 -12.413876 -0.539672 -0.851964 19.481138 0.260409 -3.21739 23.23591 -3.820364 2.36169 -2.582988 -0.215738 0.089443 -34.809315 0.209525 0.004793 5e-06 0.0 -0.0 0.042502 0.014951 0.073503 0.113959 0.046351 0.075792 0.110041 -0.020253 0.084192 -125.302063 -76.374336 144.933853 39.099564 -60.512459 1.459481 31.689602 0.229594 0.02037 0.18052 3.636984 16.246098 17.636633 -26.322626 52.410992 -19.466599 -14.395566 29.410282 1e-05 -8.774819 -9e-06 15.987376 -17.82996 6.027505 -0.609776 -1.79565 -3.889315 -4.807095 -11.046793 -2.937839 -1.4e-05 -20.975986 6e-06 -5.019987 -25.033546 -4.031888 6e-06 -3e-06 -0.0 -10.63453 -5.68697 -3.565575 10.573246 -17.922916 -3.113878 -7e-06 -13.821197 -2e-06 -0.501798 -31.181528 -4.027021 -11.315067 -59.464516 7.617834 -13.982712 -7.150199 -2.87503 13.772714 -8.401469 -3.21823 0.347712 -34.211521 0.771661 -0.963035 -17.733387 2.621028 -1e-06 1e-06 -2e-06 -17.346426 -20.0952 -4.20176 21.757551 -1.638358 3.866435 -3e-06 -6.338818 -2e-06 -1.697612 -22.591768 -6.194012 1e-06 -2e-06 -4e-06 69.542702 -79.390968 128.149216 54.582417 -59.554115 12.174952 29.87521 0.169182 0.015749 -1.386888 8.001464 4.159175 22.182114 -20.375847 49.933231 -16.701826 -16.743538 28.476507 1e-06 -12.690618 3e-06 16.320265 -17.546217 2.382133 -0.105919 -1.513859 -4.275874 -5.039048 -5.612884 -2.953553 -0.0 -11.020549 -7e-06 -6.111312 -15.895395 -3.840473 -1e-06 1e-06 1e-06 -10.28338 -5.680301 -4.341827 11.028297 -11.302411 -2.37264 -1.384279 -14.238617 -6.32013 -0.625435 -26.924299 -3.827628 -4.157038 -49.425068 -3.918198 -13.708537 -7.363491 -3.720925 18.141161 -14.052743 -3.242681 -0.0 -18.787312 -1.1e-05 -0.429713 -8.456076 2.555504 2e-06 -1e-06 1e-06 -15.923567 -20.094519 -5.473557 30.419249 -7.190813 1.735926 -1e-06 -8.162942 -1e-05 -1.8619 -22.861578 -6.167991 -1e-06 -4e-06 -0.0 -176.661774 -2.695505 -8.02787 10.249298 -0.045616 0.464667 -81.625847 -0.831278 -7.492449 -5.553982 1.524121 2.083731 -1.000002 -0.0 -0.0 5.711053 -6.947627 -13.897261 9.754425 0.061156 0.067866 -82.448959 1.390527 -9.50806 -5.866542 0.529186 1.61764 -1.000003 0.0 -0.0 
0.0 0.0 0.0 0.0 -0.0 0.0 -0.547609 99.055893 -1.327253 91.648705 1.892564 90.118042 -3.049946 -0.51067 -0.3479 -12.3333 -0.475276 -0.702729 19.658659 0.105414 -3.217979 22.897148 -4.196959 2.414194 -2.575956 -0.235074 0.090704 -35.065353 0.395792 0.041005 6e-06 0.0 -0.0 0.050613 0.012753 0.04882 0.070729 0.052268 0.040927 0.056682 -0.03015 0.069416 -126.649368 -76.129059 146.526993 39.479874 -60.057335 -0.16751 32.129837 0.313463 -0.013992 -0.828253 2.919393 14.582567 17.636688 -26.322798 52.411312 -19.466698 -14.39563 29.410471 1.2e-05 -8.774863 -4e-06 16.164478 -17.929178 6.012844 -0.609781 -1.79566 -3.889338 -4.807125 -11.046859 -2.937856 -2.3e-05 -20.976126 3e-06 -5.020033 -25.033754 -4.031923 7e-06 -1e-06 -1e-06 -10.634574 -5.687 -3.565593 10.573288 -17.92301 -3.113901 -1.7e-05 -13.821279 2e-06 -0.501816 -31.181765 -4.02706 -11.465142 -59.564423 7.740915 -13.982766 -7.150237 -2.87504 13.77277 -8.401506 -3.218243 0.347687 -34.211769 0.771667 -0.963051 -17.733522 2.621037 1e-06 -2e-06 -2e-06 -17.346504 -20.095301 -4.201775 21.757639 -1.638357 3.86645 -5e-06 -6.338855 0.0 -1.697624 -22.591908 -6.194057 0.0 -4e-06 1e-06 71.55558 -80.013725 126.159004 54.682678 -59.704063 10.718274 30.56011 0.294952 0.020776 -1.501907 7.685249 3.015361 22.182201 -20.375942 49.933426 -16.701914 -16.74362 28.476646 -1e-06 -12.690693 0.0 16.347969 -17.499468 2.355078 -0.105919 -1.513863 -4.275902 -5.039071 -5.612912 -2.953562 1e-06 -11.02062 -3e-06 -6.111353 -15.895517 -3.840498 0.0 -1e-06 4e-06 -10.283419 -5.680324 -4.341844 11.028356 -11.302471 -2.372652 -1.384281 -14.238703 -6.320161 -0.625429 -26.924509 -3.82764 -4.026603 -49.287758 -3.953158 -13.70859 -7.363521 -3.720937 18.141251 -14.052818 -3.242701 3e-06 -18.787434 -1.2e-05 -0.429712 -8.456138 2.555525 1e-06 -2e-06 -0.0 -15.923627 -20.094599 -5.473578 30.419388 -7.190852 1.735928 1e-06 -8.162988 -1.1e-05 -1.861909 -22.861734 -6.168023 -1e-06 -3e-06 -2e-06 -177.056274 -2.119641 -8.331764 11.078221 -0.078722 0.442516 -82.115517 -0.83912 -7.296792 -5.71271 1.586107 2.088746 -1.000002 -0.0 -0.0 4.279083 -7.979341 -14.031488 12.561467 0.045086 0.027154 -83.436821 2.089644 -9.643628 -5.947213 0.49553 1.605205 -1.000003 0.0 -1e-06 
0.0 0.0 0.0 0.0 -0.0 0.0 -0.296669 98.792778 -1.694876 92.517479 2.319329 89.700188 -2.586545 -0.659123 -0.278108 -12.221017 -0.423663 -0.524946 20.044214 -0.346415 -3.273874 22.459906 -4.612227 2.516931 -2.576477 -0.218219 0.174246 -35.507614 0.632152 0.084637 6e-06 0.0 -0.0 0.059099 0.015806 0.056603 0.04327 0.046719 0.046541 0.020812 -0.018065 0.078411 -129.276627 -75.612984 149.504684 40.585808 -59.179684 -3.141017 32.124275 0.242752 -0.072923 -1.59104 2.254144 10.813778 17.636377 -26.322598 52.411072 -19.466478 -14.395501 29.410295 -2e-06 -8.774733 1.5e-05 16.342405 -18.129261 6.016725 -0.609772 -1.795635 -3.889311 -4.80704 -11.046709 -2.937838 7e-06 -20.975817 -7e-06 -5.019885 -25.033339 -4.031866 5e-06 1e-06 2e-06 -10.634437 -5.686924 -3.565583 10.57316 -17.922779 -3.113884 2e-06 -13.821083 4e-06 -0.501745 -31.181234 -4.026982 -11.607369 -59.680447 7.848599 -13.982589 -7.150144 -2.87504 13.772593 -8.401412 -3.218233 0.347715 -34.211224 0.771666 -0.963042 -17.733244 2.621023 -0.0 0.0 -1e-06 -17.346254 -20.095047 -4.201779 21.757345 -1.638346 3.86638 -2e-06 -6.338766 9e-06 -1.69755 -22.591549 -6.193977 -3e-06 1e-06 1e-06 74.185684 -80.713226 123.467995 55.389729 -59.858742 8.440823 30.858511 0.240948 -0.04311 -1.870479 7.290774 1.478872 22.181877 -20.375824 49.933079 -16.701519 -16.743351 28.476282 -5e-06 -12.690407 8e-06 16.314438 -17.495693 2.406889 -0.105922 -1.513832 -4.275854 -5.038976 -5.612793 -2.953532 6e-06 -11.020357 1.4e-05 -6.111173 -15.895064 -3.840428 -0.0 -3e-06 1e-06 -10.283262 -5.680224 -4.341823 11.028139 -11.302244 -2.372587 -1.384246 -14.238353 -6.320042 -0.625433 -26.923729 -3.827512 -3.833273 -49.187164 -4.007136 -13.708376 -7.363394 -3.720931 18.140892 -14.052539 -3.24261 -1.6e-05 -18.786995 5.2e-05 -0.429728 -8.455928 2.555508 1e-06 -1e-06 2e-06 -15.923353 -20.094244 -5.473563 30.4188 -7.190716 1.735919 -7e-06 -8.16282 2.5e-05 -1.861902 -22.861126 -6.167784 -2e-06 -3e-06 -2e-06 -177.220856 -1.067702 -8.809532 12.093497 -0.110517 0.392363 -82.689644 -0.880979 -7.060153 -5.78821 1.648715 2.104749 -0.999996 -1e-06 -0.0 2.470685 -9.742791 -13.970623 16.700665 0.027454 0.017154 -85.072823 2.94676 -9.856175 -5.906126 0.483069 1.601348 -1.000002 1e-06 -0.0 
